# xmcd CD database file
#
# Track frame offsets:
#	150
#	22555
#	43681
#	63241
#	77223
#	96754
#	120003
#	137263
#	147087
#	169470
#	192477
#	216228
#	235810
#	268009
#
# Disc length: 3929 seconds
#
# Revision: 4
# Processed by: cddbd v1.5.1PL0 Copyright (c) Steve Scherf et al.
# Submitted via: CDex 1.50
#
DISCID=b70f570e
DTITLE=布袋寅泰 - MONSTER DRIVE
DYEAR=2005
DGENRE=Hard Rock
TTITLE0=MONSTER DRIVE
TTITLE1=IDENTITY (Album Mix)
TTITLE2=PARTY KING
TTITLE3=CHASE!!!
TTITLE4=BARBARELLA
TTITLE5=BITCH
TTITLE6=火の玉BOOGIE
TTITLE7=FINGER SKIPPIN' JIVE
TTITLE8=LIBERTY WINGS (Album Mix)
TTITLE9=月光ピエロ
TTITLE10=永遠の花
TTITLE11=MIRROR BALL
TTITLE12=PUSSY CAT
TTITLE13=Data Track
EXTD=YEAR: 2005
EXTT0=
EXTT1=
EXTT2=
EXTT3=
EXTT4=
EXTT5=
EXTT6=
EXTT7=
EXTT8=
EXTT9=
EXTT10=
EXTT11=
EXTT12=
EXTT13=
PLAYORDER=
